<svg width="291" height="291" viewBox="0 0 291 291" fill="none" xmlns="http://www.w3.org/2000/svg">
<path d="M145.5 0.0600586C65.1748 0.0600586 0.0600586 65.1748 0.0600586 145.5C0.0600586 225.825 65.1748 290.94 145.5 290.94C225.825 290.94 290.94 225.825 290.94 145.5C290.94 65.1748 225.825 0.0600586 145.5 0.0600586ZM184.542 208.236C179.379 210.783 173.967 212.788 168.392 214.22C163.268 215.386 158.027 215.96 152.772 215.932C146.409 215.932 140.788 215.099 135.895 213.478C131.3 212.023 127.044 209.658 123.381 206.524C120.246 203.957 117.781 200.665 116.2 196.934C114.867 193.526 114.2 188.617 114.2 182.193V132.774H98.8078V112.867C104.247 111.064 108.958 108.489 112.852 105.11C116.745 101.762 119.881 97.7473 122.23 93.0356C124.593 88.3391 126.214 82.3246 127.108 75.0829H146.909V110.685H179.936V132.774H146.909V168.907C146.909 177.073 147.333 182.315 148.197 184.617C149.076 186.979 150.768 188.95 152.969 190.177C156.06 192.041 159.59 192.98 163.529 192.98C170.588 192.98 177.588 190.647 184.557 185.996V208.236H184.542Z" fill="#C6A47C"/>
</svg>
