<svg width="411" height="289" viewBox="0 0 411 289" fill="none" xmlns="http://www.w3.org/2000/svg">
<path d="M164.417 206.125L271.028 144.5L164.417 82.8749V206.125ZM401.878 45.2837C404.549 54.9383 406.398 67.8795 407.63 84.3128C409.068 100.746 409.684 114.92 409.684 127.245L410.917 144.5C410.917 189.486 407.63 222.558 401.878 243.716C396.743 262.204 384.829 274.118 366.341 279.253C356.687 281.924 339.021 283.772 311.906 285.005C285.202 286.443 260.757 287.059 238.161 287.059L205.5 288.292C119.431 288.292 65.8168 285.005 44.6589 279.253C26.1714 274.118 14.2572 262.204 9.12183 243.716C6.45141 234.062 4.60266 221.12 3.37016 204.687C1.93225 188.254 1.31599 174.08 1.31599 161.755L0.0834961 144.5C0.0834961 99.5137 3.37016 66.4416 9.12183 45.2837C14.2572 26.7962 26.1714 14.882 44.6589 9.74659C54.3135 7.07617 71.9793 5.22742 99.0943 3.99492C125.798 2.557 150.243 1.94075 172.839 1.94075L205.5 0.708252C291.57 0.708252 345.183 3.99492 366.341 9.74659C384.829 14.882 396.743 26.7962 401.878 45.2837Z" fill="#C6A47C"/>
</svg>
