<svg width="300" height="245" viewBox="0 0 300 245" fill="none" xmlns="http://www.w3.org/2000/svg">
<path d="M299.927 29.25C288.89 34.2812 276.993 37.5875 264.667 39.1687C277.28 31.55 287.027 19.475 291.613 4.95625C279.717 12.1437 266.53 17.175 252.627 20.05C241.303 7.6875 225.393 0.5 207.333 0.5C173.65 0.5 146.13 28.1 146.13 62.1687C146.13 67.0562 146.703 71.8 147.707 76.2562C96.6799 73.6688 51.2432 49.0875 20.9999 11.8562C15.6966 20.9125 12.6866 31.55 12.6866 42.7625C12.6866 64.1812 23.4366 83.1562 40.0632 93.9375C29.8866 93.9375 20.4266 91.0625 12.1132 86.75V87.1812C12.1132 117.081 33.3266 142.094 61.4199 147.7C52.4003 150.175 42.9313 150.52 33.7566 148.706C37.6496 160.961 45.2739 171.683 55.5578 179.367C65.8417 187.051 78.268 191.309 91.0899 191.544C69.3553 208.8 42.4139 218.128 14.6932 217.994C9.81991 217.994 4.94658 217.706 0.0732422 217.131C27.3066 234.669 59.6999 244.875 94.3866 244.875C207.333 244.875 269.397 150.862 269.397 69.3562C269.397 66.625 269.397 64.0375 269.253 61.3062C281.293 52.6812 291.613 41.7562 299.927 29.25Z" fill="#C6A47C"/>
</svg>
